<?xml version="1.0" encoding="UTF-8"?>
<svg version="1.1" xmlns="http://www.w3.org/2000/svg" width="48" height="48">
<path d="M0 0 C1.25683594 0.00322266 2.51367188 0.00644531 3.80859375 0.00976562 C5.12730469 0.01814453 6.44601563 0.02652344 7.8046875 0.03515625 C9.14452961 0.04017136 10.4843735 0.04473424 11.82421875 0.04882812 C15.10941956 0.06064539 18.39453147 0.07712008 21.6796875 0.09765625 C21.6796875 2.07765625 21.6796875 4.05765625 21.6796875 6.09765625 C19.3696875 6.09765625 17.0596875 6.09765625 14.6796875 6.09765625 C14.6796875 12.69765625 14.6796875 19.29765625 14.6796875 26.09765625 C15.9996875 25.76765625 17.3196875 25.43765625 18.6796875 25.09765625 C19.0096875 24.10765625 19.3396875 23.11765625 19.6796875 22.09765625 C20.3396875 22.09765625 20.9996875 22.09765625 21.6796875 22.09765625 C22.03262868 29.15647978 22.03262868 29.15647978 20.7421875 32.59765625 C17.80339026 34.73496334 15.29387091 34.49197782 11.73828125 34.43359375 C9.6796875 34.09765625 9.6796875 34.09765625 7.6796875 32.09765625 C7.50544011 29.35104479 7.44785539 26.71658059 7.4921875 23.97265625 C7.49283203 23.23789062 7.49347656 22.503125 7.49414062 21.74609375 C7.53340895 16.78955788 7.98425277 12.00464374 8.6796875 7.09765625 C5.7096875 6.60265625 5.7096875 6.60265625 2.6796875 6.09765625 C2.70289063 6.66871094 2.72609375 7.23976563 2.75 7.828125 C2.94205145 16.4567224 3.17143131 26.99603955 -2.3203125 34.09765625 C-5.9453125 34.47265625 -5.9453125 34.47265625 -9.3203125 34.09765625 C-10.3203125 33.09765625 -10.3203125 33.09765625 -10.6953125 30.41015625 C-10.19880197 26.02431322 -8.18835205 24.37541573 -5.3203125 21.09765625 C-3.299606 16.31177244 -2.38020452 11.17160742 -1.3203125 6.09765625 C-6.88748783 8.45221948 -6.88748783 8.45221948 -12.3203125 11.09765625 C-11.75549636 7.14394326 -10.60034657 4.38090531 -8.3203125 1.09765625 C-5.50207058 -0.31146471 -3.14779968 -0.01417928 0 0 Z " fill="#00ACC1" transform="translate(19.3203125,6.90234375)"/>
</svg>
